<svg width="640" height="160" viewBox="0 0 640 160" fill="none" xmlns="http://www.w3.org/2000/svg" role="img" aria-labelledby="title desc">
  <title id="title">CodeRabbit Placeholder Icon</title>
  <desc id="desc">Orange mark with rabbit silhouette and CodeRabbit wordmark used as a placeholder icon.</desc>
  <rect width="640" height="160" fill="transparent"/>
  <g transform="translate(8 8)">
    <circle cx="72" cy="72" r="72" fill="#FF6B0B"/>
    <path d="M57 29C58 20 66 17 72 20C76 22 80 26 81 31C77 31 73 30 69 28C65 27 61 27 57 29Z" fill="#101418"/>
    <path d="M77 28C81 20 89 17 95 20C100 22 103 27 103 33C99 32 95 31 91 30C86 29 82 28 77 28Z" fill="#101418"/>
    <path d="M28 86C28 69 42 55 59 55C67 55 73 57 79 61C84 57 90 55 98 55C115 55 129 69 129 86C129 103 115 117 98 117H59C42 117 28 103 28 86Z" fill="#101418"/>
    <circle cx="92" cy="72" r="3.8" fill="#FF6B0B"/>
    <path d="M34 109C31 106 29 102 28 98C25 97 22 96 19 95C14 93 12 86 17 83C25 78 33 80 39 86C44 92 43 101 34 109Z" fill="#101418"/>
    <path d="M48 120C56 125 66 128 76 128C81 128 86 127 91 126C86 132 79 136 72 136C61 136 52 130 48 120Z" fill="#101418" opacity="0.9"/>
  </g>
  <g transform="translate(176 0)">
    <path d="M39 112C18 112 3 95 3 73C3 51 18 34 39 34C54 34 68 42 74 56H59C54 50 47 47 39 47C25 47 15 58 15 73C15 88 25 99 39 99C47 99 54 96 59 90H74C68 104 54 112 39 112Z" fill="#101418"/>
    <path d="M125 56C141 56 153 68 153 84C153 101 141 112 125 112C115 112 107 108 102 101V110H91V34H103V67C108 60 116 56 125 56ZM122 101C132 101 141 93 141 84C141 75 132 67 122 67C112 67 103 75 103 84C103 93 112 101 122 101Z" fill="#101418"/>
    <path d="M204 112C187 112 174 100 174 84C174 68 187 56 204 56C221 56 234 68 234 84C234 100 221 112 204 112ZM204 101C214 101 222 94 222 84C222 74 214 67 204 67C194 67 186 74 186 84C186 94 194 101 204 101Z" fill="#101418"/>
    <path d="M257 34H269V110H257V34Z" fill="#101418"/>
    <path d="M328 56C344 56 356 68 356 84C356 101 344 112 328 112C318 112 310 108 305 101V110H294V34H306V67C311 60 319 56 328 56ZM325 101C335 101 344 93 344 84C344 75 335 67 325 67C315 67 306 75 306 84C306 93 315 101 325 101Z" fill="#101418"/>
    <path d="M416 56C432 56 443 67 443 83V110H431V84C431 74 425 67 416 67C407 67 400 74 400 84V110H388V34H400V67C405 60 411 56 416 56Z" fill="#101418"/>
  </g>
</svg>
